<svg height="512" viewBox="0 0 60 60" width="512" xmlns="http://www.w3.org/2000/svg"><g id="Page-1" fill="none" fill-rule="evenodd"><g id="036---Disconnect" fill-rule="nonzero"><g id="Icons" transform="translate(1 1)"><ellipse id="Oval" cx="20" cy="9" fill="#ffeb3a" rx="20" ry="4"/><path id="Shape" d="m40 9v13c0 2.21-9 4-20 4s-20-1.79-20-4v-13c0 2.21 9 4 20 4s20-1.79 20-4z" fill="#ffdc00"/><path id="Shape" d="m40 22v13c0 2.21-9 4-20 4s-20-1.79-20-4v-13c0 2.21 9 4 20 4s20-1.79 20-4z" fill="#ff9801"/><path id="Shape" d="m40 35v14c0 2.21-9 4-20 4s-20-1.79-20-4v-14c0 2.21 9 4 20 4s20-1.79 20-4z" fill="#ffdc00"/><path id="Shape" d="m50 0h2c.5522847 0 1 .44771525 1 1v11h-4v-11c0-.55228475.4477153-1 1-1z" fill="#3f51b5"/><path id="Shape" d="m49 12h4c2.7614237 0 5 2.2385763 5 5v6c0 .5522847-.4477153 1-1 1h-12c-.5522847 0-1-.4477153-1-1v-6c0-2.7614237 2.2385763-5 5-5z" fill="#02a9f4"/><path id="Shape" d="m53 12h-3c2.7614237 0 5 2.2385763 5 5v6c0 .5522847-.4477153 1-1 1h3c.5522847 0 1-.4477153 1-1v-6c0-2.7614237-2.2385763-5-5-5z" fill="#0377bc"/><path id="Shape" d="m49 46h4v11c0 .5522847-.4477153 1-1 1h-2c-.5522847 0-1-.4477153-1-1z" fill="#3f51b5"/><path id="Shape" d="m45 34h12c.5522847 0 1 .4477153 1 1v6c0 2.7614237-2.2385763 5-5 5h-4c-2.7614237 0-5-2.2385763-5-5v-6c0-.5522847.4477153-1 1-1z" fill="#02a9f4"/><path id="Shape" d="m57 34h-3c.5522847 0 1 .4477153 1 1v6c0 2.7614237-2.2385763 5-5 5h3c2.7614237 0 5-2.2385763 5-5v-6c0-.2652165-.1053568-.5195704-.2928932-.7071068s-.4418903-.2928932-.7071068-.2928932z" fill="#0377bc"/></g><g id="Icons_copy" fill="#000"><path id="Shape" d="m21 5c-.86 0-21 .06-21 5v40c0 4.94 20.14 5 21 5s21-.06 21-5v-40c0-4.94-20.14-5-21-5zm19 31c-.47 1.1-7.2 3-19 3s-18.57-2-19-3v-10.64c5.11 2.64 18.31 2.64 19 2.64s13.89 0 19-2.64zm0-13c-.47 1.1-7.2 3-19 3s-18.57-1.95-19-3v-10.64c5.11 2.64 18.31 2.64 19 2.64s13.89 0 19-2.64zm-19-16c11.67 0 18.37 1.9 19 3-.61 1.1-7.31 3-19 3s-18.53-1.94-19-2.94c.47-1.12 7.2-3.06 19-3.06zm0 46c-11.84 0-18.57-2-19-3v-11.64c5.11 2.64 18.31 2.64 19 2.64s13.89 0 19-2.64v11.64c-.47 1.06-7.2 3-19 3z"/><path id="Shape" d="m29 23.23h.09c2.7476065-.1993402 5.4757169-.6105627 8.16-1.23.3465476-.0893164.6191211-.3567291.7150447-.7015063.0959235-.3447773.0006241-.7145392-.25-.9700001-.2506241-.2554608-.6184971-.35781-.9650447-.2684936-2.5844212.6057915-5.2125521 1.0070329-7.86 1.2-.5327656.0577855-.9252781.5252722-.89 1.06.046703.5168638.4810348.9121057 1 .91z"/><path id="Shape" d="m29 36.23h.09c2.7476065-.1993402 5.4757169-.6105627 8.16-1.23.3465476-.0893164.6191211-.3567291.7150447-.7015063.0959235-.3447773.0006241-.7145392-.25-.9700001-.2506241-.2554608-.6184971-.35781-.9650447-.2684936-2.5844212.6057915-5.2125521 1.0070329-7.86 1.2-.5327656.0577855-.9252781.5252722-.89 1.06.046703.5168638.4810348.9121057 1 .91z"/><path id="Shape" d="m36.75 46c-2.5844212.6057915-5.2125521 1.0070329-7.86 1.2-.2678397.0274977-.5132745.1618403-.6807827.372637-.1675081.2107967-.2429348.480235-.2092173.747363.046703.5168638.4810348.9121057 1 .91h.09c2.7476065-.1993402 5.4757169-.6105627 8.16-1.23.3465476-.0893164.6191211-.3567291.7150447-.7015063.0959235-.3447773.0006241-.7145392-.25-.9700001-.2506241-.2554608-.6184971-.35781-.9650447-.2684936z"/><circle id="Oval" cx="5" cy="16" r="1"/><path id="Shape" d="m5 19c-.55228475 0-1 .4477153-1 1v2c0 .5522847.44771525 1 1 1s1-.4477153 1-1v-2c0-.5522847-.44771525-1-1-1z"/><circle id="Oval" cx="5" cy="29" r="1"/><path id="Shape" d="m5 32c-.55228475 0-1 .4477153-1 1v2c0 .5522847.44771525 1 1 1s1-.4477153 1-1v-2c0-.5522847-.44771525-1-1-1z"/><circle id="Oval" cx="5" cy="42" r="1"/><path id="Shape" d="m5 45c-.55228475 0-1 .4477153-1 1v2c0 .5522847.44771525 1 1 1s1-.4477153 1-1v-2c0-.5522847-.44771525-1-1-1z"/><path id="Shape" d="m55 12.09v-10.09c0-1.1045695-.8954305-2-2-2h-2c-1.1045695 0-2 .8954305-2 2v10.09c-2.8846041.4875855-4.9970353 2.9844793-5 5.91v6c0 1.1045695.8954305 2 2 2h2v4c0 .5522847.4477153 1 1 1s1-.4477153 1-1v-4h4v4c0 .5522847.4477153 1 1 1s1-.4477153 1-1v-4h2c1.1045695 0 2-.8954305 2-2v-6c-.0029647-2.9255207-2.1153959-5.4224145-5-5.91zm-4-10.09h2v10h-2zm-5 22v-2h2c.5522847 0 1-.4477153 1-1s-.4477153-1-1-1h-2v-2c0-2.209139 1.790861-4 4-4h4c2.209139 0 4 1.790861 4 4v2h-6c-.5522847 0-1 .4477153-1 1s.4477153 1 1 1h6v2z"/><path id="Shape" d="m58 34h-12c-1.1045695 0-2 .8954305-2 2v6c.0029647 2.9255207 2.1153959 5.4224145 5 5.91v10.09c0 1.1045695.8954305 2 2 2h2c1.1045695 0 2-.8954305 2-2v-10.09c2.8846041-.4875855 4.9970353-2.9844793 5-5.91v-6c0-1.1045695-.8954305-2-2-2zm-5 24h-2v-10h2zm1-12h-4c-2.209139 0-4-1.790861-4-4v-2h6c.5522847 0 1-.4477153 1-1s-.4477153-1-1-1h-6v-2h12v2h-2c-.5522847 0-1 .4477153-1 1s.4477153 1 1 1h2v2c0 2.209139-1.790861 4-4 4z"/></g></g></g></svg>